<svg width="18" height="18" viewBox="0 0 18 18" fill="none" xmlns="http://www.w3.org/2000/svg">
<path opacity="0.4" d="M12.3963 0.666667H15.2179C16.3865 0.666667 17.3333 1.62154 17.3333 2.79997V5.64544C17.3333 6.82386 16.3865 7.77874 15.2179 7.77874H12.3963C11.2277 7.77874 10.2808 6.82386 10.2808 5.64544V2.79997C10.2808 1.62154 11.2277 0.666667 12.3963 0.666667Z" fill="#42BBFF"/>
<path fill-rule="evenodd" clip-rule="evenodd" d="M2.78212 0.666667H5.60376C6.77232 0.666667 7.7192 1.62154 7.7192 2.79997V5.64544C7.7192 6.82386 6.77232 7.77874 5.60376 7.77874H2.78212C1.61357 7.77874 0.666687 6.82386 0.666687 5.64544V2.79997C0.666687 1.62154 1.61357 0.666667 2.78212 0.666667ZM2.78212 10.2213H5.60376C6.77232 10.2213 7.7192 11.1761 7.7192 12.3546V15.2C7.7192 16.3777 6.77232 17.3333 5.60376 17.3333H2.78212C1.61357 17.3333 0.666687 16.3777 0.666687 15.2V12.3546C0.666687 11.1761 1.61357 10.2213 2.78212 10.2213ZM15.2179 10.2213H12.3963C11.2277 10.2213 10.2808 11.1761 10.2808 12.3546V15.2C10.2808 16.3777 11.2277 17.3333 12.3963 17.3333H15.2179C16.3865 17.3333 17.3334 16.3777 17.3334 15.2V12.3546C17.3334 11.1761 16.3865 10.2213 15.2179 10.2213Z" fill="#42BBFF"/>
</svg>
