<svg width="23" height="18" viewBox="0 0 23 18" fill="none" xmlns="http://www.w3.org/2000/svg">
<path d="M22.9617 2.11613C22.1435 2.475 21.2718 2.71288 20.3629 2.82838C21.2979 2.27013 22.0115 1.39287 22.347 0.3355C21.4753 0.85525 20.5128 1.22238 19.487 1.42725C18.6593 0.545875 17.4795 0 16.1925 0C13.6955 0 11.6853 2.02675 11.6853 4.51137C11.6853 4.86888 11.7155 5.21263 11.7898 5.53988C8.04017 5.357 4.72229 3.55988 2.49342 0.82225C2.10429 1.49738 1.87604 2.27012 1.87604 3.102C1.87604 4.664 2.68042 6.04862 3.87942 6.85025C3.15479 6.8365 2.44392 6.62613 1.84167 6.29475C1.84167 6.3085 1.84167 6.32638 1.84167 6.34425C1.84167 8.536 3.40505 10.3565 5.45517 10.7759C5.08805 10.8763 4.68792 10.9244 4.27267 10.9244C3.98392 10.9244 3.69242 10.9079 3.41879 10.8474C4.00317 12.6335 5.66142 13.9466 7.63317 13.9893C6.09867 15.1896 4.1503 15.9129 2.04104 15.9129C1.67117 15.9129 1.31642 15.8964 0.96167 15.851C2.95954 17.1394 5.3273 17.875 7.88067 17.875C16.1802 17.875 20.7177 11 20.7177 5.04075C20.7177 4.84137 20.7108 4.64887 20.7012 4.45775C21.5963 3.8225 22.3484 3.02913 22.9617 2.11613Z" fill="black"/>
</svg>
